<?xml version="1.0" standalone="no"?>
<!DOCTYPE svg PUBLIC "-//W3C//DTD SVG 20010904//EN"
 "http://www.w3.org/TR/2001/REC-SVG-20010904/DTD/svg10.dtd">
<svg version="1.0" xmlns="http://www.w3.org/2000/svg"
 width="300.000000pt" height="300.000000pt" viewBox="0 0 300.000000 300.000000"
 preserveAspectRatio="xMidYMid meet">
<metadata>
Created by potrace 1.10, written by Peter Selinger 2001-2011
</metadata>
<g transform="translate(0.000000,300.000000) scale(0.100000,-0.100000)"
fill="#000000" stroke="none">
<path d="M1392 1974 c-102 -27 -151 -67 -158 -131 -11 -87 62 -136 266 -178
150 -32 203 -54 220 -96 11 -27 10 -34 -7 -57 -42 -56 -76 -67 -213 -67 -116
0 -129 2 -181 27 -39 20 -61 38 -75 63 -25 47 -38 44 -30 -5 l6 -40 -95 0 -95
0 0 176 c0 167 1 176 20 181 47 12 13 23 -72 23 l-93 -1 28 -20 27 -21 0 -163
c0 -90 -3 -170 -6 -179 -9 -23 -57 -20 -85 7 -13 12 -82 120 -154 239 l-130
217 -78 1 c-50 0 -76 -4 -72 -10 3 -5 15 -10 25 -10 10 0 21 -4 24 -9 3 -5
-52 -103 -122 -218 -101 -164 -135 -211 -161 -225 -18 -9 -35 -19 -38 -22 -4
-3 39 -6 95 -6 97 0 131 11 77 24 -34 9 -32 31 11 99 l36 57 146 0 147 -1 33
-56 c39 -68 41 -90 7 -99 -70 -17 -1 -24 250 -24 227 0 281 -3 305 -15 96 -50
341 -59 451 -16 175 67 171 234 -8 301 -32 12 -98 31 -148 41 -183 40 -226 64
-204 113 25 54 150 86 266 67 83 -13 129 -36 145 -72 20 -44 28 -35 28 30 0
54 -2 59 -22 59 -13 0 -50 7 -83 16 -74 19 -212 20 -283 0z m-809 -132 c25
-37 47 -74 49 -81 2 -8 10 -22 18 -31 20 -22 32 -40 87 -135 51 -86 58 -105
39 -105 -6 0 -26 30 -45 67 -18 36 -43 75 -57 85 -13 11 -24 29 -24 42 0 12
-7 32 -16 44 -8 12 -12 22 -9 22 4 0 -8 18 -25 40 -17 22 -29 40 -25 40 4 0
-7 16 -24 35 -33 38 -36 45 -22 45 5 0 30 -30 54 -68z m722 16 c-5 -14 4 -29
35 -59 22 -21 50 -39 61 -39 11 0 28 -4 37 -9 9 -5 35 -12 57 -15 130 -21 236
-62 277 -109 24 -28 19 -96 -10 -127 l-20 -22 10 41 c9 34 7 46 -9 73 -29 52
-103 81 -310 122 -10 1 -27 6 -38 10 -11 5 -32 12 -47 18 -64 24 -94 83 -66
127 15 24 31 16 23 -11z m-733 -88 l56 -100 -124 0 -124 0 44 68 c24 37 51 82
60 100 9 17 20 32 24 32 4 -1 32 -46 64 -100z m415 -202 c-2 -24 -4 -5 -4 42
0 47 2 66 4 43 2 -24 2 -62 0 -85z"/>
<path d="M2040 1926 c-25 -7 -55 -18 -67 -24 -37 -20 -102 -103 -109 -139 -16
-85 17 -204 73 -268 111 -125 322 -128 436 -6 59 62 77 108 84 201 6 88 -10
131 -71 189 -47 46 -54 36 -13 -19 32 -44 18 -46 -16 -3 -40 50 -33 19 14 -59
27 -46 49 -92 49 -104 0 -54 -62 -196 -78 -179 -2 2 5 16 17 31 11 15 21 31
21 36 0 5 -15 -10 -32 -33 -77 -100 -219 -118 -328 -40 -39 28 -106 119 -95
129 4 4 10 0 15 -8 44 -78 108 -134 165 -145 l30 -5 -30 12 c-37 16 -86 48
-103 68 -32 37 -62 117 -62 165 0 91 45 136 172 175 37 11 70 25 73 30 9 14
-90 11 -145 -4z m-132 -238 c0 -52 -2 -66 -8 -48 -14 44 -11 120 5 120 1 0 2
-33 3 -72z"/>
<path d="M2490 1861 c0 -5 9 -11 20 -14 19 -5 20 -14 20 -187 0 -173 -1 -182
-20 -187 -59 -16 2 -23 185 -23 l205 0 6 28 c3 15 9 37 14 50 13 30 0 28 -26
-5 -22 -28 -24 -28 -148 -31 l-126 -4 0 170 0 170 28 21 27 20 -92 1 c-51 0
-93 -4 -93 -9z"/>
<path d="M430 1170 c0 -47 3 -60 15 -60 9 0 15 9 15 25 0 19 5 25 21 25 17 0
20 -5 17 -25 -4 -18 -1 -25 11 -25 13 0 16 11 14 57 -1 55 -23 91 -23 39 0
-19 -5 -26 -20 -26 -15 0 -20 7 -20 25 0 16 -6 25 -15 25 -12 0 -15 -13 -15
-60z"/>
<path d="M616 1215 c-41 -41 -20 -105 34 -105 53 0 78 62 40 100 -24 24 -53
26 -74 5z m52 -17 c28 -28 -3 -83 -33 -58 -8 7 -15 20 -15 29 0 17 18 41 30
41 3 0 11 -5 18 -12z"/>
<path d="M765 1221 c-7 -12 12 -24 25 -16 6 4 10 -13 10 -44 0 -40 3 -51 16
-51 13 0 15 9 12 48 -3 40 -1 47 15 44 10 -2 17 3 17 13 0 11 -11 15 -44 15
-25 0 -47 -4 -51 -9z"/>
<path d="M920 1170 l0 -60 40 0 c27 0 40 4 40 14 0 9 -8 12 -25 8 -18 -3 -25
0 -25 12 0 9 8 16 20 16 11 0 20 5 20 10 0 6 -9 10 -20 10 -11 0 -20 6 -20 13
0 8 10 13 21 13 12 -1 24 5 26 12 3 8 -8 12 -36 12 l-41 0 0 -60z"/>
<path d="M1070 1170 l0 -60 34 0 c42 0 57 17 19 22 -26 3 -27 5 -24 51 2 37
-1 47 -13 47 -13 0 -16 -12 -16 -60z"/>
<path d="M1216 1215 c-19 -20 -10 -44 20 -56 33 -12 30 -29 -6 -29 -16 0 -30
-5 -30 -11 0 -6 16 -9 38 -7 31 3 37 7 40 29 2 19 -3 28 -23 37 -29 13 -24 36
6 27 13 -4 19 -2 19 9 0 21 -43 21 -64 1z"/>
<path d="M1400 1215 c-10 -12 -10 -18 0 -30 7 -9 8 -15 2 -15 -16 0 -23 -31
-11 -46 14 -17 51 -18 67 -2 9 9 12 9 12 0 0 -7 7 -12 15 -12 17 0 20 16 5 25
-6 4 -8 16 -4 27 5 17 3 19 -16 13 -19 -6 -21 -4 -15 15 11 35 -31 54 -55 25z
m50 -76 c0 -5 -9 -9 -20 -9 -19 0 -27 20 -13 33 7 8 33 -11 33 -24z"/>
<path d="M1600 1170 c0 -47 3 -60 15 -60 9 0 15 9 15 25 0 14 5 25 10 25 6 0
15 -11 20 -25 5 -14 16 -25 25 -25 19 0 19 9 0 34 -11 14 -12 24 -3 39 13 25
-11 47 -54 47 -28 0 -28 -1 -28 -60z"/>
<path d="M1760 1170 l0 -60 40 0 c22 0 40 5 40 10 0 6 -11 10 -25 10 -16 0
-25 6 -25 15 0 8 9 15 20 15 11 0 20 5 20 10 0 6 -9 10 -20 10 -11 0 -20 6
-20 13 0 8 10 13 21 13 12 -1 24 5 26 12 3 8 -8 12 -36 12 l-41 0 0 -60z"/>
<path d="M1923 1223 c-23 -9 -15 -53 12 -65 34 -15 32 -28 -5 -28 -16 0 -30
-4 -30 -10 0 -18 69 -11 79 8 11 21 4 35 -27 51 -26 14 -19 35 9 26 13 -4 19
-2 19 9 0 16 -30 20 -57 9z"/>
<path d="M2067 1212 c-34 -38 -14 -102 32 -102 54 0 82 68 43 103 -24 22 -55
21 -75 -1z m63 -43 c0 -36 -27 -50 -46 -25 -7 10 -10 25 -7 34 16 41 53 34 53
-9z"/>
<path d="M2230 1170 c0 -47 3 -60 15 -60 10 0 15 10 15 26 0 22 2 25 15 14 8
-7 15 -19 15 -26 0 -8 9 -14 20 -14 19 0 20 2 6 28 -9 18 -11 33 -5 44 13 23
-15 48 -52 48 -29 0 -29 0 -29 -60z m56 29 c10 -17 -13 -36 -27 -22 -12 12 -4
33 11 33 5 0 12 -5 16 -11z"/>
<path d="M2380 1214 c0 -10 6 -14 15 -10 12 4 15 -4 15 -44 0 -38 4 -50 15
-50 11 0 15 12 15 50 0 40 3 48 15 44 9 -4 15 0 15 10 0 12 -10 16 -45 16 -35
0 -45 -4 -45 -16z"/>
<path d="M2542 1218 c-19 -19 -15 -31 20 -60 l33 -27 -32 -1 c-18 0 -33 -5
-33 -11 0 -6 16 -9 38 -7 48 4 57 38 18 64 -33 21 -34 38 -1 30 18 -5 25 -2
25 9 0 18 -50 21 -68 3z"/>
</g>
</svg>
