<svg version="1.1" id="Layer_1" xmlns="http://www.w3.org/2000/svg" xmlns:xlink="http://www.w3.org/1999/xlink" x="0px" y="0px"
	 width="100%" viewBox="0 0 400 400" enable-background="new 0 0 400 400" xml:space="preserve">
<path fill="#FFFFFF" opacity="1.000000" stroke="none" 
	d="
M220.000000,401.000000 
	C146.666672,401.000000 73.833336,401.000000 1.000000,401.000000 
	C1.000000,267.666656 1.000000,134.333328 1.000000,1.000000 
	C134.333328,1.000000 267.666656,1.000000 401.000000,1.000000 
	C401.000000,134.333328 401.000000,267.666656 401.000000,401.000000 
	C340.833344,401.000000 280.666656,401.000000 220.000000,401.000000 
M90.590477,170.908035 
	C89.147942,170.908035 87.705414,170.908035 86.256851,170.908035 
	C86.256851,185.079102 86.256851,198.750717 86.256851,212.346008 
	C88.849869,212.346008 91.087044,212.346008 93.718307,212.346008 
	C93.718307,207.765961 93.718307,203.528442 93.718307,198.893478 
	C98.228325,198.893478 102.350441,198.953720 106.470169,198.880020 
	C113.491302,198.754425 117.342583,195.615891 118.783005,188.974197 
	C121.261925,177.544083 116.035316,170.915451 104.536301,170.908508 
	C100.216362,170.905899 95.896431,170.908051 90.590477,170.908035 
M290.398254,212.979919 
	C292.821350,211.737885 297.210205,210.662628 297.332123,209.225357 
	C297.904327,202.481186 297.487457,195.625641 297.050507,188.833878 
	C296.797485,184.901154 294.162048,182.342819 290.309723,181.974045 
	C286.068268,181.568054 281.757782,181.913605 277.478058,181.868698 
	C272.605530,181.817581 271.773102,184.027893 273.827454,188.003159 
	C290.129242,187.808060 290.129242,187.808060 290.067688,193.928558 
	C288.093536,193.688538 286.154785,193.270264 284.215057,193.265884 
	C282.072296,193.261047 279.892700,193.456955 277.792603,193.880310 
	C272.745148,194.897812 270.694336,198.154160 270.985748,204.318527 
	C271.244965,209.800613 273.480591,212.567337 278.596558,212.996048 
	C282.220825,213.299774 285.892944,213.032425 290.398254,212.979919 
M205.537170,213.341461 
	C208.943680,212.925446 212.350174,212.509430 215.983185,212.065765 
	C215.402161,209.684174 214.987900,207.986099 214.580063,206.314392 
	C203.428421,207.974136 197.736679,208.017242 198.560562,199.018188 
	C204.923660,199.018188 211.344101,199.018188 218.137436,199.018188 
	C217.929718,196.050461 217.940186,193.565079 217.545761,191.145691 
	C216.851578,186.887695 215.402725,183.085144 210.510895,181.941513 
	C204.601410,180.559952 198.467896,180.124710 194.196609,184.972244 
	C188.967621,190.906738 189.946182,198.307892 191.876541,205.345016 
	C193.637680,211.765274 198.863571,213.189056 205.537170,213.341461 
M342.963776,202.092209 
	C342.306274,199.451569 343.718597,199.027985 345.943909,199.067001 
	C351.339996,199.161591 356.738892,199.097748 362.081909,199.097748 
	C362.494049,189.489319 361.235596,185.349167 357.443939,182.958466 
	C351.234802,179.043472 340.086456,181.303391 336.977356,187.107254 
	C332.401306,195.649719 335.074615,208.711288 342.079559,212.014847 
	C342.679657,212.297882 343.297791,212.756119 343.911713,212.762955 
	C349.248199,212.822388 354.585602,212.797241 360.638306,212.797241 
	C359.794189,209.597504 359.353546,207.927155 358.949249,206.394562 
	C356.318176,206.662811 354.195404,206.994446 352.063507,207.070892 
	C348.408875,207.201950 344.523804,207.661835 342.963776,202.092209 
M250.892868,175.222244 
	C250.802399,173.823944 250.711929,172.425659 250.639679,171.308975 
	C238.408340,171.308975 226.711548,171.308975 215.120102,171.308975 
	C215.120102,173.491714 215.120102,175.276672 215.120102,177.621277 
	C219.735886,177.621277 224.138016,177.621277 229.033539,177.621277 
	C229.033539,189.546799 229.033539,200.922440 229.033539,212.756287 
	C231.941635,212.619598 234.305954,212.508469 236.979553,212.382797 
	C236.979553,200.566483 236.979553,189.318802 236.979553,177.545486 
	C239.422638,177.545486 241.554550,177.730438 243.639725,177.497284 
	C246.082886,177.224075 248.485367,176.586914 250.892868,175.222244 
M20.712948,205.211243 
	C24.540564,201.518143 28.296974,197.747009 32.224300,194.163177 
	C34.350491,192.222961 34.202034,190.788666 32.167450,188.882263 
	C26.224682,183.313934 20.407295,177.611603 14.551960,171.950211 
	C10.611265,168.140030 10.007223,168.249374 7.239481,173.377884 
	C11.834888,179.417725 16.435240,185.464066 21.064991,191.549042 
	C17.135475,196.805588 13.552671,202.007431 9.530763,206.844147 
	C6.518963,210.466110 7.714208,212.342285 12.908368,214.512405 
	C15.106177,211.858612 17.655479,208.780396 20.712948,205.211243 
M37.339798,196.940292 
	C31.183655,203.242569 25.033669,209.550873 18.867252,215.843079 
	C17.221312,217.522614 15.309688,219.007065 17.696268,221.604843 
	C20.173124,224.300934 21.829205,222.057495 23.548172,220.766586 
	C28.570267,216.995010 33.511803,213.116180 38.585186,209.202026 
	C44.801331,213.867828 50.881844,218.431839 57.304707,223.252808 
	C58.948986,221.987076 60.442047,220.837753 61.935104,219.688446 
	C62.074902,218.846252 62.214699,218.004059 62.354496,217.161865 
	C55.425014,210.934387 48.522346,204.676483 41.535763,198.513748 
	C40.541275,197.636536 39.139637,197.220901 37.339798,196.940292 
M330.190887,181.992844 
	C325.851868,181.258118 323.709320,182.877884 322.690582,187.405411 
	C321.421600,193.045151 319.136871,198.456345 316.900269,205.131821 
	C314.680603,198.461975 312.357544,193.147125 311.213562,187.589600 
	C309.996674,181.677765 306.728882,181.136505 301.463745,182.538925 
	C304.636688,191.985214 307.556244,201.434753 311.169922,210.610947 
	C311.706268,211.972855 315.510437,212.516327 317.813843,212.544785 
	C319.284241,212.562958 321.611664,211.270279 322.121399,209.993195 
	C325.545685,201.413681 328.606659,192.688217 331.696503,183.978500 
	C331.875427,183.474182 331.276733,182.694016 330.190887,181.992844 
M51.653366,174.164001 
	C54.833092,170.829697 58.012817,167.495392 61.994476,163.320160 
	C60.426441,161.700974 59.133739,160.366089 57.952137,159.145935 
	C50.798641,164.627060 44.745926,169.264740 38.691536,173.903702 
	C32.393608,169.201279 26.312231,164.660522 19.010546,159.208618 
	C18.251635,161.877136 16.700588,164.749451 17.360201,165.408188 
	C24.503170,172.541718 31.993393,179.327545 39.362843,186.184113 
	C42.883495,182.750961 47.024967,178.712418 51.653366,174.164001 
M48.923191,185.422394 
	C46.747643,187.205246 44.572094,188.988083 43.336655,190.000519 
	C51.210499,198.583374 58.372013,206.389740 65.444519,214.099091 
	C70.078835,212.507431 70.907448,210.451675 67.872673,206.795425 
	C63.779686,201.864258 60.051945,196.629944 56.214405,191.587433 
	C60.939121,185.255417 65.473679,179.178253 70.248398,172.779221 
	C68.688805,171.387436 67.299911,170.147980 65.026550,168.119217 
	C59.596367,173.967178 54.509556,179.445343 48.923191,185.422394 
M163.852890,188.559738 
	C163.538513,193.291824 162.834351,198.039261 163.020142,202.751633 
	C163.203461,207.401443 165.738052,211.360535 170.461624,212.225403 
	C175.495148,213.147034 180.748825,212.866318 186.854980,213.155441 
	C185.882660,209.665634 185.351990,207.761002 184.856796,205.983688 
	C179.809952,206.840225 174.218369,209.178986 171.840942,204.604401 
	C169.893738,200.857605 169.673370,194.870224 171.279068,190.932983 
	C173.725983,184.933060 179.923645,188.508347 184.972534,188.325470 
	C185.455933,186.560059 185.985809,184.624939 186.597351,182.391556 
	C177.747574,181.028168 169.559326,178.977005 163.852890,188.559738 
M267.865204,182.901840 
	C266.847778,182.303192 265.793396,181.137634 264.819183,181.201218 
	C259.836334,181.526306 254.874176,182.168396 249.867188,182.703674 
	C249.867188,192.524033 249.867188,202.431274 249.867188,212.417450 
	C252.304825,212.417450 254.399857,212.417450 256.929565,212.417450 
	C256.929565,207.344742 256.929840,202.555954 256.929504,197.767181 
	C256.928772,188.174423 256.928711,188.177307 266.564453,187.970108 
	C266.861328,187.963730 267.153839,187.755310 267.843689,187.487778 
	C267.843689,186.360733 267.843689,185.062943 267.865204,182.901840 
M368.792053,169.295135 
	C368.547821,169.706345 368.091888,170.116638 368.090088,170.528915 
	C368.037018,182.645172 367.887665,194.764496 368.134338,206.875580 
	C368.183228,209.275436 369.780396,211.643753 370.728882,214.202835 
	C373.356628,213.037109 375.235168,212.203751 376.625000,211.587204 
	C373.372955,197.299164 376.172302,183.322983 374.712891,169.167587 
	C372.927521,169.167587 371.311432,169.167587 368.792053,169.295135 
M132.591034,190.458603 
	C135.871460,189.316010 139.151871,188.173416 142.757812,186.917435 
	C142.757812,185.609619 142.757812,183.553070 142.757812,181.289963 
	C136.734192,181.734116 131.025757,182.155014 125.258469,182.580261 
	C125.258469,192.487762 125.258469,202.391632 125.258469,212.405991 
	C127.612892,212.405991 129.680481,212.405991 132.210175,212.405991 
	C132.210175,205.171478 132.210175,198.214294 132.591034,190.458603 
M148.652863,193.531677 
	C148.652863,199.802307 148.652863,206.072937 148.652863,212.257675 
	C151.412399,212.257675 153.620605,212.257675 155.739059,212.257675 
	C155.739059,202.039719 155.739059,192.265411 155.739059,182.298004 
	C153.313583,182.298004 151.116440,182.298004 148.653030,182.298004 
	C148.653030,185.921204 148.653030,189.233780 148.652863,193.531677 
M342.957977,233.278229 
	C346.190033,236.498550 346.919891,242.155518 352.421722,243.804916 
	C353.807129,231.966476 353.207458,226.844315 349.825958,225.754181 
	C349.825958,229.566818 349.825958,233.197281 349.825958,237.256119 
	C345.020996,233.817978 344.648834,227.118759 338.603699,225.518814 
	C337.448914,237.382874 337.861755,241.713730 341.061707,244.142349 
	C341.061707,240.473160 340.974487,237.425705 341.132660,234.391022 
	C341.165680,233.757111 342.104492,233.170410 342.957977,233.278229 
M298.928650,227.014603 
	C298.928650,232.445282 298.928650,237.875946 298.928650,243.188446 
	C306.990509,244.716202 312.086243,242.955826 312.865540,237.803101 
	C313.336517,234.688873 312.870575,230.488968 311.045410,228.190338 
	C308.232727,224.648071 303.575684,224.393692 298.928650,227.014603 
M230.890305,238.327774 
	C232.396759,233.111649 236.076431,236.989410 238.943497,235.873199 
	C238.943497,237.929718 238.776077,239.426651 239.002472,240.861435 
	C239.153076,241.815903 239.866074,242.681641 240.327377,243.587082 
	C240.897522,242.623138 241.915588,241.679230 241.959778,240.691757 
	C242.144775,236.556641 242.120667,232.405472 241.971924,228.267410 
	C241.939972,227.378189 241.070938,226.519058 240.587509,225.646057 
	C240.039536,226.450760 239.189835,227.193939 239.010437,228.073807 
	C238.698944,229.601547 238.801804,231.213791 238.737869,232.635956 
	C235.837601,232.635956 233.436813,232.635956 231.064148,232.635956 
	C230.760742,226.391617 230.760742,226.391617 228.251129,226.037888 
	C228.251129,231.859665 228.251129,237.682449 228.251129,243.505234 
	C228.820389,243.604965 229.389648,243.704712 229.958923,243.804459 
	C230.269012,242.275345 230.579117,240.746231 230.890305,238.327774 
M253.132004,229.906631 
	C252.802231,231.361206 252.162704,232.824402 252.202820,234.268707 
	C252.308334,238.069260 253.206879,242.019608 257.320404,243.004684 
	C259.855316,243.611725 263.350159,243.155029 265.504883,241.765823 
	C269.474182,239.206726 269.358612,230.793747 265.914032,227.422684 
	C262.245361,223.832321 257.623138,224.508575 253.132004,229.906631 
M370.091431,243.694901 
	C372.594696,243.482697 375.097961,243.270493 378.341064,242.995560 
	C377.591522,239.464691 377.040497,236.868896 376.489410,234.273102 
	C375.637360,236.396317 374.785309,238.519531 373.933289,240.642746 
	C368.730835,241.015686 366.370087,239.276047 366.164276,234.917755 
	C365.957977,230.548935 368.355560,228.246628 373.239044,228.018723 
	C374.328735,227.967865 375.406097,227.653152 377.537170,227.272949 
	C371.137451,224.044830 366.163635,225.475235 363.946136,230.238770 
	C361.368774,235.775299 363.503845,240.998749 370.091431,243.694901 
M394.434113,178.952606 
	C394.641541,178.509094 394.900452,178.082047 395.048218,177.619476 
	C396.189667,174.045914 394.927429,171.589417 391.666443,169.837708 
	C388.250092,168.002579 384.997467,168.942596 383.377655,171.725937 
	C382.241364,173.678482 382.278687,177.297897 383.363770,179.336105 
	C385.134827,182.662674 388.656281,182.811096 391.996368,181.030457 
	C392.714539,180.647583 393.317352,180.048416 394.434113,178.952606 
M283.505554,243.341599 
	C285.644836,243.225433 287.784149,243.109253 289.923431,242.993088 
	C289.932098,242.415390 289.940796,241.837692 289.949493,241.259995 
	C287.367310,241.067795 284.785156,240.875595 282.275330,240.688766 
	C281.142059,228.556061 280.674347,226.313675 279.086243,226.074783 
	C279.086243,231.698486 279.086243,237.294830 279.086243,243.075668 
	C280.356598,243.170731 281.496216,243.255997 283.505554,243.341599 
M152.368713,177.018631 
	C155.931198,177.306519 156.808899,175.009598 156.122131,172.324738 
	C155.804214,171.081802 153.834915,169.414627 152.655594,169.446930 
	C151.081497,169.490051 148.631714,170.682327 148.193039,171.947815 
	C147.360626,174.349136 147.896683,177.010406 152.368713,177.018631 
M323.948883,229.878632 
	C323.948883,234.413483 323.948883,238.948334 323.948883,243.483185 
	C324.486267,243.602509 325.023651,243.721832 325.561035,243.841171 
	C326.046204,242.809525 326.905731,241.793625 326.949921,240.743423 
	C327.116241,236.790024 327.111633,232.821701 326.954773,228.867538 
	C326.912323,227.798355 326.107666,226.759415 325.652863,225.706558 
	C325.084808,226.800735 324.516754,227.894913 323.948883,229.878632 
z"/>
<path fill="#123A5A" opacity="1.000000" stroke="none" 
	d="
M91.083481,170.908035 
	C95.896431,170.908051 100.216362,170.905899 104.536301,170.908508 
	C116.035316,170.915451 121.261925,177.544083 118.783005,188.974197 
	C117.342583,195.615891 113.491302,198.754425 106.470169,198.880020 
	C102.350441,198.953720 98.228325,198.893478 93.718307,198.893478 
	C93.718307,203.528442 93.718307,207.765961 93.718307,212.346008 
	C91.087044,212.346008 88.849869,212.346008 86.256851,212.346008 
	C86.256851,198.750717 86.256851,185.079102 86.256851,170.908035 
	C87.705414,170.908035 89.147942,170.908035 91.083481,170.908035 
M103.936012,177.225967 
	C100.669075,177.225967 97.402138,177.225967 93.867577,177.225967 
	C93.867577,182.427383 93.867577,187.100510 93.867577,192.173386 
	C97.085693,192.173386 100.045731,191.992462 102.974892,192.216034 
	C107.307655,192.546707 109.920349,191.093567 110.462372,186.470657 
	C111.086510,181.147247 109.687798,178.689011 103.936012,177.225967 
z"/>
<path fill="#EA2255" opacity="1.000000" stroke="none" 
	d="
M289.970978,212.999939 
	C285.892944,213.032425 282.220825,213.299774 278.596558,212.996048 
	C273.480591,212.567337 271.244965,209.800613 270.985748,204.318527 
	C270.694336,198.154160 272.745148,194.897812 277.792603,193.880310 
	C279.892700,193.456955 282.072296,193.261047 284.215057,193.265884 
	C286.154785,193.270264 288.093536,193.688538 290.067688,193.928558 
	C290.129242,187.808060 290.129242,187.808060 273.827454,188.003159 
	C271.773102,184.027893 272.605530,181.817581 277.478058,181.868698 
	C281.757782,181.913605 286.068268,181.568054 290.309723,181.974045 
	C294.162048,182.342819 296.797485,184.901154 297.050507,188.833878 
	C297.487457,195.625641 297.904327,202.481186 297.332123,209.225357 
	C297.210205,210.662628 292.821350,211.737885 289.970978,212.999939 
M284.506348,207.969925 
	C291.266541,207.332993 291.463562,207.046021 290.261017,199.066452 
	C288.275452,198.861603 286.174347,198.445541 284.080231,198.478226 
	C281.341766,198.520966 278.782867,198.935608 278.763550,202.746872 
	C278.746002,206.210434 280.022949,208.099091 284.506348,207.969925 
z"/>
<path fill="#0D3557" opacity="1.000000" stroke="none" 
	d="
M205.125366,213.341095 
	C198.863571,213.189056 193.637680,211.765274 191.876541,205.345016 
	C189.946182,198.307892 188.967621,190.906738 194.196609,184.972244 
	C198.467896,180.124710 204.601410,180.559952 210.510895,181.941513 
	C215.402725,183.085144 216.851578,186.887695 217.545761,191.145691 
	C217.940186,193.565079 217.929718,196.050461 218.137436,199.018188 
	C211.344101,199.018188 204.923660,199.018188 198.560562,199.018188 
	C197.736679,208.017242 203.428421,207.974136 214.580063,206.314392 
	C214.987900,207.986099 215.402161,209.684174 215.983185,212.065765 
	C212.350174,212.509430 208.943680,212.925446 205.125366,213.341095 
M209.989136,190.395889 
	C208.407257,185.992813 204.698914,188.338486 202.023239,188.265594 
	C200.910553,188.235291 199.729507,190.714508 197.780151,192.982712 
	C202.791626,192.982712 206.057541,193.022263 209.317932,192.906906 
	C209.575943,192.897797 209.795929,191.813675 209.989136,190.395889 
z"/>
<path fill="#EA1D52" opacity="1.000000" stroke="none" 
	d="
M343.008057,202.520691 
	C344.523804,207.661835 348.408875,207.201950 352.063507,207.070892 
	C354.195404,206.994446 356.318176,206.662811 358.949249,206.394562 
	C359.353546,207.927155 359.794189,209.597504 360.638306,212.797241 
	C354.585602,212.797241 349.248199,212.822388 343.911713,212.762955 
	C343.297791,212.756119 342.679657,212.297882 342.079559,212.014847 
	C335.074615,208.711288 332.401306,195.649719 336.977356,187.107254 
	C340.086456,181.303391 351.234802,179.043472 357.443939,182.958466 
	C361.235596,185.349167 362.494049,189.489319 362.081909,199.097748 
	C356.738892,199.097748 351.339996,199.161591 345.943909,199.067001 
	C343.718597,199.027985 342.306274,199.451569 343.008057,202.520691 
M342.970398,191.828613 
	C343.309204,192.477844 343.628479,193.678711 343.989746,193.691483 
	C347.849304,193.827957 351.715515,193.776321 355.579895,193.776321 
	C355.873230,193.247406 356.166565,192.718475 356.459900,192.189560 
	C354.839752,190.477432 353.494446,187.840851 351.538208,187.259262 
	C348.194794,186.265289 344.500610,186.628799 342.970398,191.828613 
z"/>
<path fill="#EA1F53" opacity="1.000000" stroke="none" 
	d="
M250.899170,175.664932 
	C248.485367,176.586914 246.082886,177.224075 243.639725,177.497284 
	C241.554550,177.730438 239.422638,177.545486 236.979553,177.545486 
	C236.979553,189.318802 236.979553,200.566483 236.979553,212.382797 
	C234.305954,212.508469 231.941635,212.619598 229.033539,212.756287 
	C229.033539,200.922440 229.033539,189.546799 229.033539,177.621277 
	C224.138016,177.621277 219.735886,177.621277 215.120102,177.621277 
	C215.120102,175.276672 215.120102,173.491714 215.120102,171.308975 
	C226.711548,171.308975 238.408340,171.308975 250.639679,171.308975 
	C250.711929,172.425659 250.802399,173.823944 250.899170,175.664932 
z"/>
<path fill="#EA1D52" opacity="1.000000" stroke="none" 
	d="
M20.458866,205.456726 
	C17.655479,208.780396 15.106177,211.858612 12.908368,214.512405 
	C7.714208,212.342285 6.518963,210.466110 9.530763,206.844147 
	C13.552671,202.007431 17.135475,196.805588 21.064991,191.549042 
	C16.435240,185.464066 11.834888,179.417725 7.239481,173.377884 
	C10.007223,168.249374 10.611265,168.140030 14.551960,171.950211 
	C20.407295,177.611603 26.224682,183.313934 32.167450,188.882263 
	C34.202034,190.788666 34.350491,192.222961 32.224300,194.163177 
	C28.296974,197.747009 24.540564,201.518143 20.458866,205.456726 
z"/>
<path fill="#0E3658" opacity="1.000000" stroke="none" 
	d="
M37.633118,196.765961 
	C39.139637,197.220901 40.541275,197.636536 41.535763,198.513748 
	C48.522346,204.676483 55.425014,210.934387 62.354496,217.161865 
	C62.214699,218.004059 62.074902,218.846252 61.935104,219.688446 
	C60.442047,220.837753 58.948986,221.987076 57.304707,223.252808 
	C50.881844,218.431839 44.801331,213.867828 38.585186,209.202026 
	C33.511803,213.116180 28.570267,216.995010 23.548172,220.766586 
	C21.829205,222.057495 20.173124,224.300934 17.696268,221.604843 
	C15.309688,219.007065 17.221312,217.522614 18.867252,215.843079 
	C25.033669,209.550873 31.183655,203.242569 37.633118,196.765961 
z"/>
<path fill="#EA1F53" opacity="1.000000" stroke="none" 
	d="
M330.615417,182.017548 
	C331.276733,182.694016 331.875427,183.474182 331.696503,183.978500 
	C328.606659,192.688217 325.545685,201.413681 322.121399,209.993195 
	C321.611664,211.270279 319.284241,212.562958 317.813843,212.544785 
	C315.510437,212.516327 311.706268,211.972855 311.169922,210.610947 
	C307.556244,201.434753 304.636688,191.985214 301.463745,182.538925 
	C306.728882,181.136505 309.996674,181.677765 311.213562,187.589600 
	C312.357544,193.147125 314.680603,198.461975 316.900269,205.131821 
	C319.136871,198.456345 321.421600,193.045151 322.690582,187.405411 
	C323.709320,182.877884 325.851868,181.258118 330.615417,182.017548 
z"/>
<path fill="#E91C51" opacity="1.000000" stroke="none" 
	d="
M51.409901,174.418945 
	C47.024967,178.712418 42.883495,182.750961 39.362843,186.184113 
	C31.993393,179.327545 24.503170,172.541718 17.360201,165.408188 
	C16.700588,164.749451 18.251635,161.877136 19.010546,159.208618 
	C26.312231,164.660522 32.393608,169.201279 38.691536,173.903702 
	C44.745926,169.264740 50.798641,164.627060 57.952137,159.145935 
	C59.133739,160.366089 60.426441,161.700974 61.994476,163.320160 
	C58.012817,167.495392 54.833092,170.829697 51.409901,174.418945 
z"/>
<path fill="#0C3456" opacity="1.000000" stroke="none" 
	d="
M49.172970,185.172943 
	C54.509556,179.445343 59.596367,173.967178 65.026550,168.119217 
	C67.299911,170.147980 68.688805,171.387436 70.248398,172.779221 
	C65.473679,179.178253 60.939121,185.255417 56.214405,191.587433 
	C60.051945,196.629944 63.779686,201.864258 67.872673,206.795425 
	C70.907448,210.451675 70.078835,212.507431 65.444519,214.099091 
	C58.372013,206.389740 51.210499,198.583374 43.336655,190.000519 
	C44.572094,188.988083 46.747643,187.205246 49.172970,185.172943 
z"/>
<path fill="#11395A" opacity="1.000000" stroke="none" 
	d="
M163.935822,188.182938 
	C169.559326,178.977005 177.747574,181.028168 186.597351,182.391556 
	C185.985809,184.624939 185.455933,186.560059 184.972534,188.325470 
	C179.923645,188.508347 173.725983,184.933060 171.279068,190.932983 
	C169.673370,194.870224 169.893738,200.857605 171.840942,204.604401 
	C174.218369,209.178986 179.809952,206.840225 184.856796,205.983688 
	C185.351990,207.761002 185.882660,209.665634 186.854980,213.155441 
	C180.748825,212.866318 175.495148,213.147034 170.461624,212.225403 
	C165.738052,211.360535 163.203461,207.401443 163.020142,202.751633 
	C162.834351,198.039261 163.538513,193.291824 163.935822,188.182938 
z"/>
<path fill="#EA1F53" opacity="1.000000" stroke="none" 
	d="
M267.854431,183.333496 
	C267.843689,185.062943 267.843689,186.360733 267.843689,187.487778 
	C267.153839,187.755310 266.861328,187.963730 266.564453,187.970108 
	C256.928711,188.177307 256.928772,188.174423 256.929504,197.767181 
	C256.929840,202.555954 256.929565,207.344742 256.929565,212.417450 
	C254.399857,212.417450 252.304825,212.417450 249.867188,212.417450 
	C249.867188,202.431274 249.867188,192.524033 249.867188,182.703674 
	C254.874176,182.168396 259.836334,181.526306 264.819183,181.201218 
	C265.793396,181.137634 266.847778,182.303192 267.854431,183.333496 
z"/>
<path fill="#E91C51" opacity="1.000000" stroke="none" 
	d="
M369.243713,169.231354 
	C371.311432,169.167587 372.927521,169.167587 374.712891,169.167587 
	C376.172302,183.322983 373.372955,197.299164 376.625000,211.587204 
	C375.235168,212.203751 373.356628,213.037109 370.728882,214.202835 
	C369.780396,211.643753 368.183228,209.275436 368.134338,206.875580 
	C367.887665,194.764496 368.037018,182.645172 368.090088,170.528915 
	C368.091888,170.116638 368.547821,169.706345 369.243713,169.231354 
z"/>
<path fill="#0E3658" opacity="1.000000" stroke="none" 
	d="
M132.400604,190.857849 
	C132.210175,198.214294 132.210175,205.171478 132.210175,212.405991 
	C129.680481,212.405991 127.612892,212.405991 125.258469,212.405991 
	C125.258469,202.391632 125.258469,192.487762 125.258469,182.580261 
	C131.025757,182.155014 136.734192,181.734116 142.757812,181.289963 
	C142.757812,183.553070 142.757812,185.609619 142.757812,186.917435 
	C139.151871,188.173416 135.871460,189.316010 132.400604,190.857849 
z"/>
<path fill="#11395A" opacity="1.000000" stroke="none" 
	d="
M148.652954,193.039017 
	C148.653030,189.233780 148.653030,185.921204 148.653030,182.298004 
	C151.116440,182.298004 153.313583,182.298004 155.739059,182.298004 
	C155.739059,192.265411 155.739059,202.039719 155.739059,212.257675 
	C153.620605,212.257675 151.412399,212.257675 148.652863,212.257675 
	C148.652863,206.072937 148.652863,199.802307 148.652954,193.039017 
z"/>
<path fill="#38434F" opacity="1.000000" stroke="none" 
	d="
M342.791931,232.920074 
	C342.104492,233.170410 341.165680,233.757111 341.132660,234.391022 
	C340.974487,237.425705 341.061707,240.473160 341.061707,244.142349 
	C337.861755,241.713730 337.448914,237.382874 338.603699,225.518814 
	C344.648834,227.118759 345.020996,233.817978 349.825958,237.256119 
	C349.825958,233.197281 349.825958,229.566818 349.825958,225.754181 
	C353.207458,226.844315 353.807129,231.966476 352.421722,243.804916 
	C346.919891,242.155518 346.190033,236.498550 342.791931,232.920074 
z"/>
<path fill="#38434F" opacity="1.000000" stroke="none" 
	d="
M299.054169,226.587173 
	C303.575684,224.393692 308.232727,224.648071 311.045410,228.190338 
	C312.870575,230.488968 313.336517,234.688873 312.865540,237.803101 
	C312.086243,242.955826 306.990509,244.716202 298.928650,243.188446 
	C298.928650,237.875946 298.928650,232.445282 299.054169,226.587173 
M302.037231,233.595795 
	C302.037231,236.018860 302.037231,238.441910 302.037231,240.848022 
	C308.165192,240.972748 310.245422,239.256210 310.225525,234.502762 
	C310.205994,229.834335 307.970428,228.062347 302.036926,228.315552 
	C302.036926,229.753754 302.036926,231.212692 302.037231,233.595795 
z"/>
<path fill="#38434F" opacity="1.000000" stroke="none" 
	d="
M230.889755,238.772446 
	C230.579117,240.746231 230.269012,242.275345 229.958923,243.804459 
	C229.389648,243.704712 228.820389,243.604965 228.251129,243.505234 
	C228.251129,237.682449 228.251129,231.859665 228.251129,226.037888 
	C230.760742,226.391617 230.760742,226.391617 231.064148,232.635956 
	C233.436813,232.635956 235.837601,232.635956 238.737869,232.635956 
	C238.801804,231.213791 238.698944,229.601547 239.010437,228.073807 
	C239.189835,227.193939 240.039536,226.450760 240.587509,225.646057 
	C241.070938,226.519058 241.939972,227.378189 241.971924,228.267410 
	C242.120667,232.405472 242.144775,236.556641 241.959778,240.691757 
	C241.915588,241.679230 240.897522,242.623138 240.327362,243.587082 
	C239.866074,242.681641 239.153076,241.815903 239.002472,240.861435 
	C238.776077,239.426651 238.943497,237.929718 238.943497,235.873199 
	C236.076431,236.989410 232.396759,233.111649 230.889755,238.772446 
z"/>
<path fill="#38434F" opacity="1.000000" stroke="none" 
	d="
M253.325928,229.571289 
	C257.623138,224.508575 262.245361,223.832321 265.914032,227.422684 
	C269.358612,230.793747 269.474182,239.206726 265.504883,241.765823 
	C263.350159,243.155029 259.855316,243.611725 257.320404,243.004684 
	C253.206879,242.019608 252.308334,238.069260 252.202820,234.268707 
	C252.162704,232.824402 252.802231,231.361206 253.325928,229.571289 
M263.453613,229.117096 
	C261.374329,229.185532 257.898773,228.583130 257.482147,229.450348 
	C256.313202,231.883408 255.833298,235.010452 256.243469,237.685608 
	C256.447632,239.017212 259.172272,240.775803 260.799408,240.821472 
	C262.129303,240.858780 264.434753,238.802536 264.684326,237.388031 
	C265.111908,234.964783 264.271210,232.317734 263.453613,229.117096 
z"/>
<path fill="#38434F" opacity="1.000000" stroke="none" 
	d="
M369.713501,243.559525 
	C363.503845,240.998749 361.368774,235.775299 363.946136,230.238770 
	C366.163635,225.475235 371.137451,224.044830 377.537170,227.272949 
	C375.406097,227.653152 374.328735,227.967865 373.239044,228.018723 
	C368.355560,228.246628 365.957977,230.548935 366.164276,234.917755 
	C366.370087,239.276047 368.730835,241.015686 373.933289,240.642731 
	C374.785309,238.519531 375.637360,236.396317 376.489441,234.273102 
	C377.040497,236.868896 377.591522,239.464691 378.341064,242.995560 
	C375.097961,243.270493 372.594696,243.482697 369.713501,243.559525 
z"/>
<path fill="#123A5A" opacity="1.000000" stroke="none" 
	d="
M394.203674,179.250748 
	C393.317352,180.048416 392.714539,180.647583 391.996368,181.030457 
	C388.656281,182.811096 385.134827,182.662674 383.363770,179.336105 
	C382.278687,177.297897 382.241364,173.678482 383.377655,171.725937 
	C384.997467,168.942596 388.250092,168.002579 391.666443,169.837708 
	C394.927429,171.589417 396.189667,174.045914 395.048218,177.619476 
	C394.900452,178.082047 394.641541,178.509094 394.203674,179.250748 
z"/>
<path fill="#2F3B48" opacity="1.000000" stroke="none" 
	d="
M283.070709,243.341431 
	C281.496216,243.255997 280.356598,243.170731 279.086243,243.075668 
	C279.086243,237.294830 279.086243,231.698486 279.086243,226.074783 
	C280.674347,226.313675 281.142059,228.556061 282.275330,240.688766 
	C284.785156,240.875595 287.367310,241.067795 289.949493,241.259995 
	C289.940796,241.837692 289.932098,242.415390 289.923431,242.993088 
	C287.784149,243.109253 285.644836,243.225433 283.070709,243.341431 
z"/>
<path fill="#123A5A" opacity="1.000000" stroke="none" 
	d="
M151.958679,177.016998 
	C147.896683,177.010406 147.360626,174.349136 148.193039,171.947815 
	C148.631714,170.682327 151.081497,169.490051 152.655594,169.446930 
	C153.834915,169.414627 155.804214,171.081802 156.122131,172.324738 
	C156.808899,175.009598 155.931198,177.306519 151.958679,177.016998 
z"/>
<path fill="#2F3B48" opacity="1.000000" stroke="none" 
	d="
M323.948792,229.433868 
	C324.516754,227.894913 325.084808,226.800735 325.652863,225.706573 
	C326.107666,226.759415 326.912323,227.798355 326.954773,228.867538 
	C327.111633,232.821701 327.116241,236.790024 326.949921,240.743423 
	C326.905731,241.793625 326.046204,242.809525 325.561035,243.841171 
	C325.023651,243.721832 324.486267,243.602509 323.948883,243.483185 
	C323.948883,238.948334 323.948883,234.413483 323.948792,229.433868 
z"/>
<path fill="#F9FAFB" opacity="1.000000" stroke="none" 
	d="
M104.369827,177.230103 
	C109.687798,178.689011 111.086510,181.147247 110.462372,186.470657 
	C109.920349,191.093567 107.307655,192.546707 102.974892,192.216034 
	C100.045731,191.992462 97.085693,192.173386 93.867577,192.173386 
	C93.867577,187.100510 93.867577,182.427383 93.867577,177.225967 
	C97.402138,177.225967 100.669075,177.225967 104.369827,177.230103 
z"/>
<path fill="#FEF3F6" opacity="1.000000" stroke="none" 
	d="
M284.080444,207.969116 
	C280.022949,208.099091 278.746002,206.210434 278.763550,202.746872 
	C278.782867,198.935608 281.341766,198.520966 284.080231,198.478226 
	C286.174347,198.445541 288.275452,198.861603 290.261017,199.066452 
	C291.463562,207.046021 291.266541,207.332993 284.080444,207.969116 
z"/>
<path fill="#FFFFFF" opacity="1.000000" stroke="none" 
	d="
M210.011353,190.812531 
	C209.795929,191.813675 209.575943,192.897797 209.317932,192.906906 
	C206.057541,193.022263 202.791626,192.982712 197.780151,192.982712 
	C199.729507,190.714508 200.910553,188.235291 202.023239,188.265594 
	C204.698914,188.338486 208.407257,185.992813 210.011353,190.812531 
z"/>
<path fill="#FEF3F6" opacity="1.000000" stroke="none" 
	d="
M343.015045,191.409393 
	C344.500610,186.628799 348.194794,186.265289 351.538208,187.259262 
	C353.494446,187.840851 354.839752,190.477432 356.459900,192.189560 
	C356.166565,192.718475 355.873230,193.247406 355.579895,193.776321 
	C351.715515,193.776321 347.849304,193.827957 343.989746,193.691483 
	C343.628479,193.678711 343.309204,192.477844 343.015045,191.409393 
z"/>
<path fill="#FFFFFF" opacity="1.000000" stroke="none" 
	d="
M302.037079,233.133698 
	C302.036926,231.212692 302.036926,229.753754 302.036926,228.315552 
	C307.970428,228.062347 310.205994,229.834335 310.225525,234.502762 
	C310.245422,239.256210 308.165192,240.972748 302.037231,240.848022 
	C302.037231,238.441910 302.037231,236.018860 302.037079,233.133698 
z"/>
<path fill="#F9FAFB" opacity="1.000000" stroke="none" 
	d="
M263.708313,229.440887 
	C264.271210,232.317734 265.111908,234.964783 264.684326,237.388031 
	C264.434753,238.802536 262.129303,240.858780 260.799408,240.821472 
	C259.172272,240.775803 256.447632,239.017212 256.243469,237.685608 
	C255.833298,235.010452 256.313202,231.883408 257.482147,229.450348 
	C257.898773,228.583130 261.374329,229.185532 263.708313,229.440887 
z"/>
</svg>