<?xml version="1.0" standalone="no"?>
<!DOCTYPE svg PUBLIC "-//W3C//DTD SVG 20010904//EN"
 "http://www.w3.org/TR/2001/REC-SVG-20010904/DTD/svg10.dtd">
<svg version="1.0" xmlns="http://www.w3.org/2000/svg"
 width="300.000000pt" height="300.000000pt" viewBox="0 0 300.000000 300.000000"
 preserveAspectRatio="xMidYMid meet">
<metadata>
Created by potrace 1.10, written by Peter Selinger 2001-2011
</metadata>
<g transform="translate(0.000000,300.000000) scale(0.100000,-0.100000)"
fill="#000000" stroke="none">
<path d="M1547 1816 c-73 -81 -77 -86 -52 -86 21 0 26 -4 22 -17 -48 -157 -47
-148 -26 -203 20 -53 25 -90 10 -90 -36 0 -68 24 -86 65 -11 25 -23 45 -27 45
-11 0 -11 2 15 -65 l23 -59 49 3 c28 1 52 7 55 11 3 5 25 76 50 159 42 139 47
150 71 153 l25 3 -25 83 -26 83 -78 -85z m78 -20 c5 -25 1 -41 -19 -71 -14
-21 -26 -46 -26 -57 0 -10 -4 -26 -9 -36 -6 -9 -17 -41 -26 -69 -20 -65 -32
-74 -40 -29 -5 24 0 54 15 97 13 40 19 75 16 94 -5 26 0 38 30 73 20 23 40 40
44 37 5 -3 12 -21 15 -39z"/>
<path d="M100 1701 c0 -5 -13 -74 -30 -153 -16 -78 -30 -143 -30 -143 0 -1 16
-1 35 -1 33 0 35 2 45 48 5 27 10 56 10 64 0 11 8 14 28 12 22 -2 33 -14 57
-63 27 -54 33 -60 63 -61 40 -2 40 6 2 75 -35 64 -35 61 -12 61 46 1 82 72 59
119 -6 14 -23 31 -37 38 -29 15 -190 18 -190 4z m167 -67 c11 -29 -29 -56 -79
-52 l-44 3 8 33 c8 31 11 32 59 32 36 0 51 -4 56 -16z"/>
<path d="M410 1653 c-6 -32 -20 -98 -31 -148 -10 -49 -19 -92 -19 -95 0 -3 53
-4 117 -3 103 2 118 4 125 20 14 36 9 38 -77 34 -78 -3 -85 -1 -84 15 2 52 11
57 92 55 62 -2 77 1 77 13 0 8 3 21 6 30 5 14 -5 16 -74 16 l-80 0 7 28 c7 26
9 27 89 30 62 2 82 6 82 17 0 7 3 20 6 29 5 14 -8 16 -109 16 l-116 0 -11 -57z"/>
<path d="M683 1696 c3 -8 15 -68 27 -133 11 -65 22 -127 25 -138 3 -15 12 -20
40 -20 35 0 36 2 103 125 38 69 76 137 86 153 l18 27 -38 0 -39 0 -55 -105
c-30 -58 -57 -105 -60 -105 -3 0 -12 44 -19 97 -7 54 -15 101 -18 105 -2 5
-20 8 -40 8 -26 0 -34 -4 -30 -14z m117 -228 c0 -8 -20 -22 -24 -17 -2 2 -7
14 -11 27 -6 22 -5 22 14 10 12 -7 21 -16 21 -20z"/>
<path d="M987 1578 c-15 -73 -30 -142 -33 -153 -5 -19 -1 -20 112 -18 119 2
133 7 134 43 0 12 -15 14 -85 12 -91 -4 -90 -4 -76 47 6 23 10 24 82 22 72 -2
77 -1 83 21 3 13 6 26 6 31 0 4 -34 7 -76 7 -74 0 -76 1 -70 23 3 12 6 25 6
30 0 4 35 7 79 7 73 0 79 2 85 23 3 12 6 25 6 30 0 4 -51 7 -113 7 l-112 0
-28 -132z"/>
<path d="M1305 1698 c-20 -64 -135 -439 -135 -441 0 -1 24 -2 53 -1 l52 2 18
59 c81 262 105 367 61 267 -21 -49 -74 -212 -74 -228 0 -22 -25 -66 -37 -66
-34 0 -34 -7 9 140 65 225 74 245 102 248 18 2 26 -1 26 -12 0 -9 -8 -16 -17
-17 -15 0 -15 -2 2 -8 12 -5 21 -4 24 3 2 6 10 19 18 28 8 9 12 22 8 27 -9 16
-105 14 -110 -1z"/>
<path d="M1692 1643 c-70 -122 -132 -232 -132 -237 0 -3 16 -4 36 -2 29 3 39
10 51 35 15 29 18 31 74 31 57 0 58 0 61 -31 3 -28 7 -32 36 -34 17 -2 32 0
32 4 0 3 -11 71 -25 151 -14 80 -25 146 -25 148 0 1 -16 2 -35 2 -32 0 -37 -5
-73 -67z m70 -67 l3 -44 -37 -4 c-21 -2 -38 -2 -38 -1 0 8 56 93 61 93 4 0 9
-20 11 -44z"/>
<path d="M1910 1696 c0 -8 -3 -21 -6 -30 -5 -13 2 -16 41 -16 40 0 46 -3 41
-17 -7 -22 -46 -212 -46 -223 0 -4 15 -7 33 -5 l32 2 22 99 c12 55 23 109 23
122 0 20 5 22 49 22 47 0 49 1 53 30 l5 30 -124 0 c-99 0 -123 -3 -123 -14z"/>
<path d="M2176 1578 c-14 -73 -29 -142 -32 -153 -5 -18 -1 -21 30 -21 20 0 36
1 36 3 0 1 14 66 30 143 17 77 30 145 30 150 0 6 -15 10 -34 10 l-33 0 -27
-132z"/>
<path d="M2321 1596 c-21 -99 -22 -117 -10 -142 25 -52 95 -69 164 -40 42 18
59 51 85 163 11 48 22 98 25 111 5 19 2 22 -29 22 -39 0 -37 5 -62 -124 -18
-95 -38 -126 -76 -126 -52 1 -55 10 -30 127 12 59 22 111 22 116 0 4 -15 7
-33 7 l-33 0 -23 -114z"/>
<path d="M2636 1578 c-15 -73 -30 -143 -33 -154 -4 -19 -1 -22 29 -20 32 2 33
2 45 71 6 39 12 85 12 103 1 17 6 32 11 32 6 0 10 -41 10 -104 l0 -104 31 3
c16 1 34 6 38 11 14 17 84 176 86 197 1 12 3 28 4 35 0 6 8 12 16 12 17 0 21
-46 5 -52 -10 -3 -60 -167 -60 -194 0 -6 14 -11 30 -11 17 0 30 1 30 1 0 1 14
66 30 144 17 79 30 148 30 153 0 5 -21 9 -46 9 l-45 0 -49 -102 c-33 -72 -45
-105 -37 -110 9 -5 7 -12 -5 -24 -16 -17 -18 -17 -24 0 -4 9 -2 22 5 29 7 7
11 49 11 109 l0 98 -48 0 -49 0 -27 -132z m88 51 c-2 -4 -13 -7 -23 -6 -16 1
-17 5 -8 25 10 22 12 22 24 6 7 -9 10 -20 7 -25z"/>
<path d="M1420 1653 c0 -6 7 -26 16 -44 l15 -34 -6 35 c-5 33 -25 67 -25 43z"/>
<path d="M445 1170 c4 -6 11 -8 16 -5 5 4 9 -12 9 -35 0 -25 4 -39 10 -35 6 3
10 22 10 41 0 21 4 33 10 29 6 -3 10 -1 10 4 0 6 -16 11 -36 11 -21 0 -33 -4
-29 -10z"/>
<path d="M532 1168 c-34 -34 6 -90 48 -68 35 19 20 80 -20 80 -9 0 -21 -5 -28
-12z m46 -31 c3 -22 -1 -27 -17 -27 -15 0 -21 6 -21 23 0 46 33 49 38 4z"/>
<path d="M613 1143 c8 -47 22 -61 45 -47 11 7 18 25 19 50 l1 39 -6 -35 c-5
-22 -14 -36 -24 -38 -15 -3 -18 4 -18 32 0 20 -5 36 -11 36 -8 0 -10 -13 -6
-37z"/>
<path d="M700 1140 c0 -22 5 -40 10 -40 6 0 10 7 10 15 0 22 15 18 33 -7 13
-19 16 -20 16 -6 1 9 -4 20 -10 24 -8 5 -7 9 1 14 22 14 3 40 -30 40 -28 0
-30 -2 -30 -40z"/>
<path d="M825 1170 c-8 -13 12 -40 31 -40 8 0 14 -4 14 -10 0 -14 -23 -12 -39
3 -11 10 -13 9 -9 -2 8 -28 36 -37 55 -18 17 17 17 19 -1 32 -10 8 -24 16 -30
18 -6 2 -8 8 -4 12 4 4 15 2 24 -6 15 -12 17 -12 12 1 -6 18 -43 25 -53 10z"/>
<path d="M900 1140 c0 -22 4 -40 9 -40 10 0 23 58 15 71 -13 21 -24 6 -24 -31z"/>
<path d="M955 1149 c-5 -23 -9 -28 -16 -18 -6 10 -9 8 -9 -8 0 -13 4 -23 8
-23 5 0 14 10 20 23 10 21 11 21 11 -6 1 -16 5 -26 9 -23 10 6 2 86 -8 86 -5
0 -12 -14 -15 -31z"/>
<path d="M1042 1138 c3 -39 6 -43 31 -46 15 -2 27 1 27 7 0 6 -11 11 -25 11
-14 0 -25 5 -25 10 0 6 12 10 26 10 14 0 23 4 19 10 -3 6 -16 10 -28 10 -24 0
-13 16 18 23 13 3 8 5 -13 6 -33 1 -33 1 -30 -41z"/>
<path d="M1124 1166 c-18 -46 22 -94 53 -64 9 10 13 21 9 25 -4 4 -11 1 -16
-6 -9 -16 -40 -8 -40 11 0 7 4 19 9 27 8 12 12 13 25 1 18 -14 32 -8 21 9 -9
16 -55 13 -61 -3z"/>
<path d="M1210 1165 c-15 -18 -6 -61 16 -69 24 -9 54 12 54 37 0 43 -44 63
-70 32z m49 -9 c14 -17 4 -46 -15 -46 -18 0 -28 24 -20 45 7 19 20 19 35 1z"/>
<path d="M1301 1138 c1 -35 2 -38 8 -18 l7 25 6 -24 c7 -25 28 -20 28 7 0 14
-2 14 -9 3 -7 -10 -11 -5 -16 18 -10 45 -25 38 -24 -11z"/>
<path d="M1356 1171 c-8 -12 4 -71 14 -71 4 0 7 18 6 40 -1 38 -9 50 -20 31z"/>
<path d="M1397 1173 c-11 -10 -8 -73 2 -73 5 0 12 10 14 23 l4 22 2 -22 c0
-13 6 -23 12 -23 6 0 14 10 17 23 6 20 7 20 13 -8 6 -26 7 -23 8 18 1 55 -6
60 -21 16 l-11 -31 -13 31 c-14 33 -17 35 -27 24z"/>
<path d="M1492 1138 c3 -36 7 -44 27 -46 13 -2 28 1 34 7 8 8 3 11 -16 11 -15
0 -27 5 -27 10 0 6 9 10 20 10 11 0 20 5 20 10 0 6 -9 10 -20 10 -11 0 -20 5
-20 11 0 6 9 9 20 6 11 -3 20 -1 20 4 0 5 -14 9 -31 9 -29 0 -30 -1 -27 -42z"/>
<path d="M1570 1140 c0 -22 5 -40 10 -40 6 0 10 7 10 15 0 22 15 18 33 -7 13
-19 16 -20 16 -6 1 9 -4 20 -10 24 -8 5 -7 9 1 14 22 14 3 40 -30 40 -28 0
-30 -2 -30 -40z"/>
<path d="M1664 1166 c-18 -46 22 -94 53 -64 9 10 13 21 9 25 -4 4 -11 1 -16
-6 -11 -19 -40 -6 -40 18 0 26 17 36 36 20 8 -6 18 -9 21 -5 9 9 -17 26 -40
26 -10 0 -20 -6 -23 -14z"/>
<path d="M1744 1166 c-3 -8 -4 -27 -2 -43 2 -24 8 -28 36 -31 18 -2 32 1 32 7
0 6 -11 11 -25 11 -14 0 -25 5 -25 10 0 6 9 10 20 10 11 0 20 5 20 10 0 6 -9
10 -20 10 -11 0 -20 5 -20 11 0 6 9 9 20 6 11 -3 23 -1 26 4 3 5 -9 9 -26 9
-17 0 -33 -6 -36 -14z"/>
<path d="M1867 1174 c-15 -15 -6 -34 18 -40 14 -3 25 -10 25 -15 0 -13 -24
-11 -38 3 -9 9 -12 8 -12 -4 0 -19 24 -30 45 -22 22 9 18 42 -5 49 -11 3 -20
11 -20 16 0 13 14 11 29 -3 11 -11 13 -10 9 2 -5 16 -39 25 -51 14z"/>
<path d="M1950 1166 c-16 -20 -9 -56 12 -70 14 -8 22 -6 40 11 19 19 20 26 10
48 -13 28 -43 33 -62 11z m45 -27 c0 -15 -7 -25 -18 -27 -22 -4 -33 24 -17 43
18 21 35 13 35 -16z"/>
<path d="M2030 1140 c0 -43 16 -58 48 -44 15 7 14 8 -5 11 -19 4 -23 11 -23
39 0 19 -4 34 -10 34 -5 0 -10 -18 -10 -40z"/>
<path d="M2100 1146 c0 -40 24 -65 48 -49 19 11 30 83 13 83 -6 0 -11 -16 -11
-35 0 -24 -5 -35 -15 -35 -10 0 -15 11 -15 35 0 19 -4 35 -10 35 -5 0 -10 -15
-10 -34z"/>
<path d="M2192 1169 c13 -7 16 -18 12 -38 -4 -16 -1 -32 5 -35 7 -5 11 7 11
34 0 23 4 39 9 35 5 -3 12 -1 16 5 4 6 -9 10 -32 10 -30 -1 -34 -3 -21 -11z"/>
<path d="M2260 1140 c0 -22 5 -40 10 -40 6 0 10 18 10 40 0 22 -4 40 -10 40
-5 0 -10 -18 -10 -40z"/>
<path d="M2298 1155 c-10 -22 -9 -29 10 -48 28 -27 55 -14 60 28 6 48 -50 64
-70 20z m52 0 c15 -18 6 -45 -15 -45 -18 0 -30 24 -21 45 7 19 20 19 36 0z"/>
<path d="M2391 1133 c2 -45 2 -46 8 -13 l6 34 18 -27 c24 -37 32 -34 34 13 1
45 -14 55 -19 13 l-4 -28 -14 28 c-20 40 -30 33 -29 -20z"/>
<path d="M2474 1168 c-7 -10 14 -32 40 -41 6 -2 7 -8 3 -13 -4 -4 -17 -2 -29
5 -16 10 -19 10 -16 0 9 -27 37 -35 55 -16 17 17 17 19 -1 32 -10 8 -24 16
-30 18 -6 2 -8 8 -4 12 4 4 14 2 23 -5 17 -14 31 -8 20 9 -8 15 -52 14 -61 -1z"/>
</g>
</svg>
